grf.mot																		
version=1																		
nRows=18
nColumns=31
inDegrees=yes																		
endheader																		
time	ground_force_vx	ground_force_vy	ground_force_vz	ground_force_px	ground_force_py	ground_force_pz	1_ground_force_vx	1_ground_force_vy	1_ground_force_vz	1_ground_force_px	1_ground_force_py	1_ground_force_pz	ground_torque_x	ground_torque_y	ground_torque_z	1_ground_torque_x	1_ground_torque_y	1_ground_torque_z	apo_force_vx	apo_force_vy	apo_force_vz	apo_force_px	apo_force_py	apo_force_pz	1_apo_force_vx	1_apo_force_vy	1_apo_force_vz	1_apo_force_px	1_apo_force_py	1_apo_force_pz	
3.71435000000000	-114.25400000000000	975.06799999999998	-65.20150000000000	0.00909524000000	0.00000000000000	0.07007010000000	0.00000000000000	0.00000000000000	0.00000000000000	0.00000000000000	0.00000000000000	0.00000000000000	0.00000000000000	1.27477000000000	0.00000000000000	0.00000000000000	0.00000000000000	0.00000000000000	5.70740000000000	3.76600000000000	0.00000000000000	0.00000000000000	-0.35000000000000	0.00000000000000	-6.57990000000000	-1.09950000000000	0.00000000000000	0.00000000000000	-0.35000000000000	0.00000000000000	
3.71935000000000	-105.04100000000000	949.98900000000003	-64.15110000000000	0.00149326000000	0.00000000000000	0.07049650000000	0.00000000000000	0.00000000000000	0.00000000000000	0.00000000000000	0.00000000000000	0.00000000000000	0.00000000000000	1.03132000000000	0.00000000000000	0.00000000000000	0.00000000000000	0.00000000000000	5.81790000000000	3.72260000000000	0.00000000000000	0.00000000000000	-0.35000000000000	0.00000000000000	-6.68880000000000	-1.23840000000000	0.00000000000000	0.00000000000000	-0.35000000000000	0.00000000000000	
3.72435000000000	-95.95520000000001	923.57200000000000	-62.93320000000000	-0.00552274000000	0.00000000000000	0.07096230000000	0.00000000000000	0.00000000000000	0.00000000000000	0.00000000000000	0.00000000000000	0.00000000000000	0.00000000000000	0.79588400000000	0.00000000000000	0.00000000000000	0.00000000000000	0.00000000000000	5.93750000000000	3.68040000000000	0.00000000000000	0.00000000000000	-0.35000000000000	0.00000000000000	-6.79150000000000	-1.38110000000000	0.00000000000000	0.00000000000000	-0.35000000000000	0.00000000000000	
3.72935000000000	-87.09350000000001	896.09100000000001	-61.58710000000000	-0.01194830000000	0.00000000000000	0.07145110000000	0.00000000000000	0.00000000000000	0.00000000000000	0.00000000000000	0.00000000000000	0.00000000000000	0.00000000000000	0.57295600000000	0.00000000000000	0.00000000000000	0.00000000000000	0.00000000000000	6.05820000000000	3.63460000000000	0.00000000000000	0.00000000000000	-0.35000000000000	0.00000000000000	-6.87980000000000	-1.52560000000000	0.00000000000000	0.00000000000000	-0.35000000000000	0.00000000000000	
3.73435000000000	-78.54060000000000	867.81799999999998	-60.14800000000000	-0.01779380000000	0.00000000000000	0.07194610000000	0.00000000000000	0.00000000000000	0.00000000000000	0.00000000000000	0.00000000000000	0.00000000000000	0.00000000000000	0.36655300000000	0.00000000000000	0.00000000000000	0.00000000000000	0.00000000000000	6.16980000000000	3.57930000000000	0.00000000000000	0.00000000000000	-0.35000000000000	0.00000000000000	-6.94370000000000	-1.66890000000000	0.00000000000000	0.00000000000000	-0.35000000000000	0.00000000000000	
3.73935000000000	-70.36830000000001	839.02599999999995	-58.64660000000000	-0.02308340000000	0.00000000000000	0.07243130000000	0.00000000000000	0.00000000000000	0.00000000000000	0.00000000000000	0.00000000000000	0.00000000000000	0.00000000000000	0.18011900000000	0.00000000000000	0.00000000000000	0.00000000000000	0.00000000000000	6.26090000000000	3.50910000000000	0.00000000000000	0.00000000000000	-0.35000000000000	0.00000000000000	-6.97210000000000	-1.80690000000000	0.00000000000000	0.00000000000000	-0.35000000000000	0.00000000000000	
3.74435000000000	-62.63490000000000	809.97900000000004	-57.10870000000000	-0.02785360000000	0.00000000000000	0.07289150000000	0.00000000000000	0.00000000000000	0.00000000000000	0.00000000000000	0.00000000000000	0.00000000000000	0.00000000000000	0.01647600000000	0.00000000000000	0.00000000000000	0.00000000000000	0.00000000000000	6.31960000000000	3.41900000000000	0.00000000000000	0.00000000000000	-0.35000000000000	0.00000000000000	-6.95450000000000	-1.93470000000000	0.00000000000000	0.00000000000000	-0.35000000000000	0.00000000000000	
3.74935000000000	-55.38510000000000	780.93700000000001	-55.55510000000000	-0.03215170000000	0.00000000000000	0.07331310000000	0.00000000000000	0.00000000000000	0.00000000000000	0.00000000000000	0.00000000000000	0.00000000000000	0.00000000000000	-0.12220700000000	0.00000000000000	0.00000000000000	0.00000000000000	0.00000000000000	6.30460000000000	3.28960000000000	0.00000000000000	0.00000000000000	-0.35000000000000	0.00000000000000	-6.85670000000000	-2.03950000000000	0.00000000000000	0.00000000000000	-0.35000000000000	0.00000000000000	
3.75435000000000	-48.64980000000000	752.14499999999998	-54.00160000000000	-0.03603450000000	0.00000000000000	0.07368400000000	2.16593000000000	26.47650000000000	4.58771000000000	0.01508260000000	0.00000000000000	0.00360323000000	0.00000000000000	-0.23443100000000	0.00000000000000	0.00000000000000	0.59960100000000	0.00000000000000	5.67150000000000	2.85160000000000	0.00000000000000	0.00000000000000	-0.35000000000000	0.00000000000000	-6.03100000000000	-1.91140000000000	0.00000000000000	0.00000000000000	-0.35000000000000	0.00000000000000	
3.75935000000000	-42.44670000000000	723.83600000000001	-52.45920000000000	-0.03956590000000	0.00000000000000	0.07399450000000	3.09156000000000	27.16190000000000	4.17278000000000	0.00970676000000	0.00000000000000	0.00306743000000	0.00000000000000	-0.31936100000000	0.00000000000000	0.00000000000000	0.61242300000000	0.00000000000000	5.46020000000000	2.64300000000000	0.00000000000000	0.00000000000000	-0.35000000000000	0.00000000000000	-5.71250000000000	-1.92310000000000	0.00000000000000	0.00000000000000	-0.35000000000000	0.00000000000000	
3.76435000000000	-36.78100000000000	696.23000000000002	-50.93490000000000	-0.04281600000000	0.00000000000000	0.07423700000000	3.81843000000000	26.68450000000000	3.67102000000000	0.00442369000000	0.00000000000000	0.00252975000000	0.00000000000000	-0.37681000000000	0.00000000000000	0.00000000000000	0.60509200000000	0.00000000000000	5.21970000000000	2.43020000000000	0.00000000000000	0.00000000000000	-0.35000000000000	0.00000000000000	-5.37020000000000	-1.91480000000000	0.00000000000000	0.00000000000000	-0.35000000000000	0.00000000000000	
3.76935000000000	-31.64670000000000	669.52599999999995	-49.43190000000000	-0.04585810000000	0.00000000000000	0.07440660000000	4.35509000000000	25.13450000000000	3.10316000000000	-0.00059998500000	0.00000000000000	0.00200197000000	0.00000000000000	-0.40719800000000	0.00000000000000	0.00000000000000	0.57918000000000	0.00000000000000	4.98630000000000	2.23100000000000	0.00000000000000	0.00000000000000	-0.35000000000000	0.00000000000000	-5.03050000000000	-1.89480000000000	0.00000000000000	0.00000000000000	-0.35000000000000	0.00000000000000	
3.77435000000000	-27.02760000000000	643.90599999999995	-47.95030000000000	-0.04876780000000	0.00000000000000	0.07450060000000	0.00000000000000	0.00000000000000	0.00000000000000	0.00000000000000	0.00000000000000	0.00000000000000	0.00000000000000	-0.41150600000000	0.00000000000000	0.00000000000000	0.00000000000000	0.00000000000000	5.49990000000000	2.36230000000000	0.00000000000000	0.00000000000000	-0.35000000000000	0.00000000000000	-5.54120000000000	-2.19950000000000	0.00000000000000	0.00000000000000	-0.35000000000000	0.00000000000000	
3.77935000000000	-22.89910000000000	619.52900000000000	-46.48810000000000	-0.05162070000000	0.00000000000000	0.07451920000000	0.00000000000000	0.00000000000000	0.00000000000000	0.00000000000000	0.00000000000000	0.00000000000000	0.00000000000000	-0.39121100000000	0.00000000000000	0.00000000000000	0.00000000000000	0.00000000000000	5.15970000000000	2.12530000000000	0.00000000000000	0.00000000000000	-0.35000000000000	0.00000000000000	-5.11250000000000	-2.13360000000000	0.00000000000000	0.00000000000000	-0.35000000000000	0.00000000000000	
3.78435000000000	-19.22960000000000	596.53599999999994	-45.04170000000000	-0.05449080000000	0.00000000000000	0.07446460000000	0.00000000000000	0.00000000000000	0.00000000000000	0.00000000000000	0.00000000000000	0.00000000000000	0.00000000000000	-0.34822000000000	0.00000000000000	0.00000000000000	0.00000000000000	0.00000000000000	4.78480000000000	1.88790000000000	0.00000000000000	0.00000000000000	-0.35000000000000	0.00000000000000	-4.65950000000000	-2.04000000000000	0.00000000000000	0.00000000000000	-0.35000000000000	0.00000000000000	
3.78935000000000	-15.98250000000000	575.04399999999998	-43.60710000000000	-0.05744850000000	0.00000000000000	0.07434160000000	0.00000000000000	0.00000000000000	0.00000000000000	0.00000000000000	0.00000000000000	0.00000000000000	0.00000000000000	-0.28478900000000	0.00000000000000	0.00000000000000	0.00000000000000	0.00000000000000	4.38920000000000	1.65680000000000	0.00000000000000	0.00000000000000	-0.35000000000000	0.00000000000000	-4.19760000000000	-1.92400000000000	0.00000000000000	0.00000000000000	-0.35000000000000	0.00000000000000	
3.79435000000000	-13.11750000000000	555.14800000000002	-42.17990000000000	-0.06055960000000	0.00000000000000	0.07415690000000	0.00000000000000	0.00000000000000	0.00000000000000	0.00000000000000	0.00000000000000	0.00000000000000	0.00000000000000	-0.20344200000000	0.00000000000000	0.00000000000000	0.00000000000000	0.00000000000000	3.98710000000000	1.43800000000000	0.00000000000000	0.00000000000000	-0.35000000000000	0.00000000000000	-3.74170000000000	-1.79180000000000	0.00000000000000	0.00000000000000	-0.35000000000000	0.00000000000000	
3.79935000000000	-10.59270000000000	536.92100000000005	-40.75680000000000	-0.06388330000000	0.00000000000000	0.07391870000000	0.00000000000000	0.00000000000000	0.00000000000000	0.00000000000000	0.00000000000000	0.00000000000000	0.00000000000000	-0.10689100000000	0.00000000000000	0.00000000000000	0.00000000000000	0.00000000000000	3.59100000000000	1.23560000000000	0.00000000000000	0.00000000000000	-0.35000000000000	0.00000000000000	-3.30400000000000	-1.64980000000000	0.00000000000000	0.00000000000000	-0.35000000000000	0.00000000000000	
